<?xml version="1.0" encoding="UTF-8"?>
<svg id="_レイヤー_2" xmlns="http://www.w3.org/2000/svg" version="1.1" viewBox="0 0 100 100">
  <!-- Generator: Adobe Illustrator 30.6.0, SVG Export Plug-In . SVG Version: 2.1.4 Build 109)  -->
  <defs>
    <style>
      .st0 {
        fill: #efefef;
      }

      .st1 {
        fill: #27272a;
      }
    </style>
  </defs>
  <circle class="st1" cx="50" cy="50" r="50"/>
  <g id="_レイヤー_1-2">
    <path class="st0" d="M71.3,76.5c-.6,0-1.4.2-2.1.3-5.2,1-11.2,1.6-17.2,1.6-13.6,0-17.4-2.9-17.9-11.7-.1-2.6-.2-5.9-.2-9.8v-11.2c-3.3.3-6.6.5-9.8.7-2.1.1-3.7.4-5,.6l-.2-1.9c.7,0,2.9,0,5.1-.2,3.2-.3,6.5-.5,9.9-.7v-10.4c0-1.7,0-3.3-.1-5h1.9c-.1,1.7-.2,3.4-.2,5.1v10.2c8.5-.5,17.3-1.1,25.1-1.4,0-2.9.1-6.2.1-10s0-3.6-.2-5.4h1.9c-.2,2-.2,3.8-.2,5.4,0,3.8,0,7.1-.1,9.9,3.1,0,7.3-.2,10.5-.2s3.5,0,4.6-.2v1.8c-1.2,0-3.3-.1-4.3-.1-3.4,0-7.6,0-10.7.2-.2,5.4-.5,9.3-1,12.1-.8,5.4-2.8,7.2-5.6,7.2s-4.8-.7-9.2-3.5c0-.4.1-.7.1-1.2v-.5c4.5,3.1,7.1,3.7,9,3.7s3.5-1.2,4.3-6.2c.4-2.6.7-6.3.9-11.6-7.9.3-16.6.8-25.2,1.4v11.4c0,3.8,0,7.1.2,9.6.5,8.1,3.7,10.4,16.4,10.4s13.6-.8,19-2.2l.3,1.8h0ZM71.8,35.1c-1-3.7-2.8-7.7-4.6-10.7l1.3-.4c1.8,3,3.6,7.1,4.7,10.7l-1.4.5ZM79.8,32.4c-1.2-3.6-3.1-7.5-5-10.4l1.3-.5c1.8,2.9,3.7,6.8,5,10.3,0,0-1.3.5-1.3.5Z"/>
  </g>
</svg>