<?xml version="1.0" encoding="UTF-8"?>
<svg id="_レイヤー_2" data-name="レイヤー 2" xmlns="http://www.w3.org/2000/svg" viewBox="0 0 1000 83.81">
  <g id="_レイヤー_1-2" data-name="レイヤー 1">
    <g>
      <path d="M73.11,76.71c-.85.1-1.89.28-2.94.47-7.2,1.33-15.63,2.18-23.96,2.18-19.04,0-24.24-3.98-25-16.38-.19-3.69-.28-8.24-.28-13.64v-15.63c-4.64.38-9.19.66-13.73,1.04-2.94.19-5.21.57-6.91.85l-.28-2.65c1.04,0,4.07,0,7.1-.28,4.45-.38,9.09-.76,13.83-1.04v-14.49c0-2.37,0-4.64-.19-7.01h2.65c-.19,2.37-.28,4.74-.28,7.1v14.21c11.84-.76,24.15-1.52,35.04-1.99.09-3.98.19-8.62.19-13.92,0-2.46,0-5.02-.28-7.58h2.65c-.28,2.84-.28,5.3-.28,7.58,0,5.3-.09,9.85-.19,13.83,4.36-.09,10.23-.28,14.58-.28,2.18,0,4.83-.09,6.44-.28v2.56c-1.7-.1-4.55-.19-6.06-.19-4.74,0-10.61.09-14.96.28-.28,7.58-.76,12.97-1.33,16.86-1.14,7.58-3.88,10.04-7.86,10.04-3.03,0-6.63-.95-12.78-4.83.09-.57.19-1.04.19-1.71v-.66c6.25,4.36,9.85,5.21,12.5,5.21s4.92-1.71,5.97-8.62c.57-3.6.95-8.81,1.23-16.19-11.08.38-23.11,1.14-35.13,1.99v15.91c0,5.3.09,9.85.28,13.45.66,11.27,5.21,14.49,22.92,14.49,9.19,0,18.94-1.14,26.52-3.13l.38,2.46ZM73.77,18.85c-1.42-5.11-3.88-10.8-6.44-14.96l1.8-.57c2.56,4.17,5.02,9.85,6.53,14.87l-1.89.66ZM84.95,15.15c-1.7-5.02-4.26-10.42-6.91-14.49l1.8-.66c2.56,3.98,5.11,9.47,6.91,14.39l-1.8.76Z"/>
      <path d="M141.96,28.51c2.18-.38,4.64-.95,7.39-1.71,13.16-3.6,29.55-6.25,38.54-6.25,17.99,0,26.61,10.04,26.61,21.21,0,12.31-8.9,22.63-23.11,28.13-7.67,2.94-17.62,4.74-25.76,5.11-.09-.76-.28-1.33-.85-2.18,8.71-.19,18.47-2.08,25.85-4.92,13.54-5.11,21.78-14.68,21.78-26.14,0-9.94-7.58-19.22-24.53-19.22-8.62,0-24.81,2.56-38.07,6.16-2.75.76-4.83,1.42-7.01,2.27l-.85-2.46Z"/>
      <path d="M309.4,44.23c-2.75,7.95-5.97,16.29-8.24,21.21-3.31,7.1-6.63,9.66-10.04,9.66-6.06,0-10.8-5.49-10.8-14.11,0-10.61,8.24-20.36,28.13-20.55,2.84-7.96,6.35-18.37,9.28-27.65-6.06.47-14.3.85-20.17.95-2.46,0-4.74.09-6.63.28l-.09-2.46c1.89.19,4.36.19,6.72.19,5.59,0,13.92-.38,18.66-.85,1.33-.09,2.18-.28,2.94-.76l1.61,1.33c-.66,1.23-1.14,2.37-1.52,3.6-2.46,7.29-5.97,17.71-8.62,25.38,8.9.47,20.65,4.17,30.21,9.19,1.04-4.74,1.61-12.12,1.61-19.13,0-2.46,0-4.55-.28-6.63h2.56c-.19,2.08-.19,4.17-.19,6.63,0,7.29-.66,15.15-1.8,20.08,3.5,1.99,7.86,4.64,11.18,6.82,2.37,1.51,4.36,2.75,5.97,3.69l-1.14,2.27c-1.8-1.51-3.41-2.65-5.78-4.17-3.31-2.18-7.39-4.74-10.8-6.63-3.98,14.58-14.02,25.57-25.1,30.59-.47-.76-.85-1.23-1.61-1.7,11.55-4.83,21.12-15.63,24.91-29.83-9.56-5.02-21.21-8.71-30.4-9.19l-.57,1.8ZM307.79,42.43c-18.28.19-25.38,9.09-25.38,18.56,0,7.39,3.6,12.22,8.71,12.22,2.37,0,5.02-1.71,8.24-8.62,2.18-4.74,5.3-12.88,7.96-20.74l.47-1.42Z"/>
      <path d="M469.08,81.26c-.85-.95-1.89-1.89-3.22-2.94-6.44-5.02-14.21-9.38-19.22-11.36.09,1.71.19,3.79.19,4.92,0,8.33-5.4,11.93-14.02,11.93-9.19,0-14.58-4.83-14.58-10.42s5.4-10.51,16.67-10.51c2.75,0,6.25.57,9.38,1.42-.57-8.05-1.14-21.12-1.14-37.22,0-2.75,0-4.17-.28-5.78h2.56c-.28,1.61-.28,3.03-.28,5.78,0,4.55.09,9,.09,13.16,5.68-.09,11.84-.47,17.62-1.33,1.8-.28,3.98-.85,5.49-1.42l.38,2.37c-1.52.28-3.88.66-5.59.95-6.06.95-12.03,1.33-17.8,1.42.19,9.38.66,17.24,1.04,22.73,5.4,1.89,13.83,6.53,20.74,11.84,1.42,1.04,2.56,1.99,3.22,2.37l-1.23,2.08ZM444.83,71.69c0-1.52-.09-3.6-.28-5.49-3.22-.95-6.91-1.42-9.66-1.42-10.13,0-14.68,3.98-14.68,8.62s4.36,8.52,12.6,8.52c7.48,0,12.03-2.75,12.03-10.23Z"/>
      <path d="M536.89,37.41c1.52-.19,3.69-.57,6.91-1.33,11.08-2.56,21.97-3.98,29.83-3.98,15.06,0,22.54,7.67,22.54,16.86,0,10.13-6.06,19.04-16.1,24.72-6.91,3.88-16.57,7.01-25.48,8.71-.19-.76-.47-1.42-1.04-2.18,9.19-1.42,18.85-4.55,25.48-8.24,9.75-5.4,15.06-13.73,15.06-23.01,0-8.24-6.72-14.87-20.46-14.87-7.67,0-18.28,1.33-29.36,3.98-3.12.76-5.11,1.33-6.72,1.89l-.66-2.56ZM586.8,16.38c-5.87-.28-12.79-1.04-19.51-2.08-6.82-1.04-13.07-2.56-18.09-4.26l.85-1.99c4.64,1.8,10.7,3.22,17.52,4.26,6.53,1.04,13.45,1.7,19.6,1.89l-.38,2.18Z"/>
      <path d="M725.54,71.78h-50.1c-2.46,0-4.55,0-7.1.28v-2.75c2.56.28,4.64.28,7.1.28h50.1V19.41h-48.49c-2.46,0-4.55,0-7.1.28v-2.75c2.56.28,4.64.28,7.1.28h43.85c2.46,0,4.55,0,7.1-.28-.28,2.56-.28,4.64-.28,7.1v47.07c0,2.46,0,4.55.28,7.1h-2.46v-6.44Z"/>
      <path d="M862.77,34.28c-.47.47-.76,1.23-1.14,2.37-3.31,9.85-8.14,19.41-14.68,26.61-7.39,8.05-19.98,15.25-31.63,18.47-.28-.85-.66-1.42-1.33-2.08,11.93-2.94,24.05-10.04,31.35-17.8,6.44-6.82,11.27-16.67,14.4-26.52h-56.25c-2.46,0-4.55,0-7.1.28v-2.75c2.56.28,4.64.28,7.1.28h55.5c1.42,0,2.18-.09,2.65-.28l1.14,1.42ZM853.87,13.92c-2.56-.28-4.64-.28-7.1-.28h-35.04c-2.46,0-4.55,0-7.1.28v-2.75c2.56.28,4.64.28,7.1.28h35.04c2.46,0,4.55,0,7.1-.28v2.75Z"/>
      <path d="M997.92,80.88c-2.08-4.64-4.17-9.19-6.53-13.73-20.27,3.69-40.63,6.44-60.89,8.24-2.46.19-4.83.47-7.29.85l-.38-2.84h1.99c1.8,0,3.6-.1,5.4-.19,1.33-.1,2.75-.28,4.07-.38,7.77-16.86,15.82-39.3,21.21-58.62.76-2.65,1.42-5.4,1.8-8.05l2.75.76c-.85,2.46-1.61,5.3-2.37,7.96-5.3,19.13-13.54,41.39-20.93,57.77,17.99-1.7,36.08-4.17,53.7-7.39-4.74-9.28-10.13-18.37-16.1-27.18l2.08-.95c9,13.54,16.86,27.94,23.58,42.62l-2.08,1.14Z"/>
    </g>
  </g>
</svg>