<?xml version="1.0" encoding="UTF-8"?>
<svg id="_レイヤー_1" data-name=" レイヤー 1" xmlns="http://www.w3.org/2000/svg" viewBox="0 0 100 100">
  <path d="M34.8834366262,13.755031283c-3.8836390897.1832318715-6.5357560696.8030081285-8.8542602517,1.7140573173-2.399533933.9351395663-4.4333345649,2.1900221687-6.4569151379,4.2209029826-2.023580573,2.0308810924-3.2697037216,4.0661409371-4.198273071,6.4693251298-.8986391272,2.3236136546-1.5074652316,4.9779205676-1.679016996,8.8637495903-.1715517644,3.8858301366-.2095121299,5.1348717108-.1905319384,15.0469119571s.0627806452,11.1545142491.2511225462,15.0483711699c.1854218742,3.8829094833.8030081285,6.5342968568,1.7140573173,8.8535317592.936599336,2.399533933,2.1900221687,4.4326027307,4.221632589,6.4569162518,2.0316106988,2.0243135211,4.0654113307,3.2675137886,6.4744357162,4.19754249,2.3214237216.8971774777,4.9764602409,1.5089240266,8.8615607712,1.679016996,3.8851016441.1700929693,5.1356024311.2095117644,15.044722024.1905308593,9.9091173651-.018980905,11.1567019544-.0627795662,15.0498326104-.2474735744s6.5306432554-.8066572743,8.8506088781-1.7133252046c2.399533933-.9387884336,4.4340641713-2.1900221687,6.4569162518-4.2223647017s3.2682400532-4.0690604765,4.1960810494-6.4737049959c.8993696386-2.3214226077,1.5103854672-4.976459127,1.679016996-8.85863789.1700929693-3.8960490816.2102424846-5.1399800694.1912615796-15.0505611029-.018980905-9.9105810335-.0635102864-11.1530528085-.2482042947-15.0454527443s-.8030081285-6.5357560696-1.7133252046-8.8564501848c-.9380577133-2.399533933-2.1900221687-4.4311446318-4.2209032611-6.4569151379s-4.0690604765-3.2704352773-6.4729742756-4.1960845303c-2.3228840482-.8986391272-4.976459127-1.5111153521-8.8615607712-1.679016996s-5.1356002033-.210972178-15.0483711699-.1919919866-11.1537835288.0613206319-15.0469119571.2511225462M35.3097606744,79.7389395668c-3.5587860241-.1547612101-5.4911156734-.7460654134-6.778848664-1.2410125622-1.7052973066-.6570066506-2.9200295582-1.4512550469-4.2033826827-2.7221959516s-2.0717607711-2.4900541364-2.7375277108-4.1917011833c-.5000549505-1.2877341045-1.1023110468-3.2178738207-1.2687526425-6.7766598448-.1810420777-3.8464091138-.2190022169-5.0012813388-.240172498-14.7461492691s.0160602517-10.8982787147.1846917804-14.7461492691c.1518416707-3.5558653707.7467972476-5.4903849531,1.2410125622-6.7773883373.6570066506-1.7074872396,1.4483343935-2.9200295582,2.7221970655-4.2026530764s2.489325644-2.0724909344,4.1924319036-2.7382573172c1.286272664-.5022448835,3.2164123802-1.0993909504,6.7737391915-1.2687526425,3.8493297671-.1825018474,5.0027405515-.2190022169,14.7461492691-.240172498,9.7434109453-.0211702811,10.8997401553.0153300883,14.7505291352.1846917804,3.5558675986.1547617671,5.4911134456.7438777082,6.7766598448,1.2410125622,1.7060269129.6570066506,2.9200295582,1.4461444605,4.2026530764,2.7221981794s2.0732227686,2.4871357109,2.7389891514,4.1938922302c.5029761608,1.2826224042,1.1001216707,3.2120325141,1.2680224792,6.7715481445.1832325677,3.8493297671.2248435236,5.0034712718.242362988,14.7461492691.0175194645,9.7426757694-.0167887442,10.8997401553-.1854202729,14.7461492691-.1554919304,3.5587860241-.7453391488,5.4918441658-1.2410125622,6.7810397109-.6570066506,1.7045654724-1.449062886,2.9200295582-2.7236573922,4.2019223561s-2.4885971515,2.071761328-4.1924319036,2.7375277108c-1.2848112234.5015147202-3.2171431005,1.1001216707-6.7715492584,1.2694839198-3.8493275393.1810404068-5.0027427793.2190022169-14.7497984149.2401708271-9.7470556356.0211686103-10.8968217297-.0182501847-14.7461492691-.1846940083M65.065599722,30.4919121292c.004036784,2.4190272334,1.9683198512,4.3767650073,4.3873470846,4.3727282232s4.3767650073-1.9683176234,4.3727282232-4.3873470846c-.004036784-2.4190283473-1.9683198512-4.3767650073-4.3873470846-4.3727282232-.000481206,0-.0009624121.0000011139-.0014436181.0000022278-2.4184613707.0048332246-4.3753213891,1.9688801444-4.3712846051,4.3873448568M31.2589492687,50.036398544c.0204401178,10.3515038928,8.4272065972,18.7239588219,18.7765183291,18.7042471965s18.7276124233-8.4257440427,18.707900798-18.7772479355-8.4286669238-18.7261498688-18.7794400964-18.705709751-18.7246895421,8.4286658099-18.7049790307,18.77871049M37.8333967548,50.0232589457c-.0132910891-6.7196547512,5.423292355-12.1777833047,12.1429448784-12.1910743939,6.7196547512-.0132888613,12.1777833047,5.423292355,12.1910743939,12.1429448784.0132910891,6.7196369287-5.4232633935,12.1777565711-12.1428958666,12.1910743939-6.7188460577.0141242885-12.1769946615-5.4211291556-12.1911167222-12.1399752133l-.0000066834-.0029674373"/>
</svg>