<?xml version="1.0" encoding="UTF-8"?>
<svg id="_レイヤー_1" data-name=" レイヤー 1" xmlns="http://www.w3.org/2000/svg" viewBox="0 0 200 200">
  <path d="M139.4300936065,94.3025299378c-.180869218-21.8855100101-12.118423896-35.0891630133-32.0143414598-35.0891630133s-24.5985896779,5.9687738892-30.567363567,15.7358600032l13.0227803354,9.0435988926c3.4365703391-5.2452866677,7.9583697854-9.767086114,16.4593472247-9.767086114s14.6506274461,5.4261593356,15.916732671,15.1932454496c-4.7026686643-.7234906713-9.2244681106-1.0852291072-14.1080128925-1.0852291072-25.8646914529,0-38.1639880168,11.7566785604-38.1639880168,27.3116727955s12.1184204462,25.1412076813,30.2056182314,25.1412076813,31.4717269061-13.2036530033,36.3552647884-29.6630071276c5.0644139999,2.3513343321,8.500984339,7.5966244497,8.500984339,15.5549873354,0,21.3428989063-24.5985931277,32.9187082487-45.3988705807,32.9187082487-30.7482362349,0-50.6441537986-20.0767867817-50.6441537986-52.9954881307s26.407319806-66.0182839905,62.0391008228-66.0182839905,35.8126502348,10.4905750604,43.7710200201,24.5985914028l13.203659903-9.2244715604c-8.6818604567-18.268072178-28.2160395845-31.2908542383-57.5172944767-31.2908542383-46.6649723558,0-78.4984411477,33.099570567-78.4984411477,81.2115208155,0,48.1119433488,31.1099815705,69.4548422551,68.1887370302,69.4548422551s61.6773485874-17.9063285672,61.6773485874-48.4736886844-9.2244681106-26.5881821242-22.4281280135-32.5569560134v-.0000068997ZM99.638258479,124.8698969547c-6.6922645605,0-12.6610384496-3.2556942214-12.6610384496-9.0435988926,0-9.2244681106,11.3949332247-12.118423896,22.6089972315-12.118423896s8.500984339.3617453356,12.118423896,1.0852291072c-2.7130796678,12.118423896-10.4905733355,20.2576628994-22.0663826779,20.2576628994h0v-.180869218Z"/>
</svg>