<?xml version="1.0" encoding="UTF-8"?>
<svg id="_レイヤー_1" data-name="レイヤー 1" xmlns="http://www.w3.org/2000/svg" viewBox="0 0 200 200">
  <path d="M169.1195733365,85.7901069055c-13.5902171918.0375223064-26.8486444759-4.1964063742-37.9018322098-12.1035225655v55.170336469c-.0113870783,27.7086006864-22.4828444463,50.1572694104-50.1952408255,50.1420721519-27.7085934427-.0151972585-50.1572657885-22.4866546264-50.1420757738-50.1952408255.0151900148-27.7086006864,22.4904466973-50.1572694104,50.1990401401-50.1420721519,2.2900631424,0,4.5763233483.1595060206,6.8435978467.4709266763v27.7503677943c-12.134134393-3.8194665561-25.067081022,2.9209159733-28.8865475781,15.0550503663-3.8194593124,12.134134393,2.9209087296,25.0670737784,15.0550503663,28.8865403344,12.134134393,3.8194665561,25.067081022-2.9209159733,28.8865403344-15.0550503663.7040430594-2.2366626708,1.0624173039-4.5677250901,1.0627360262-6.9125939796V21h27.1807096438c-.0195144968,2.2952315141.1724577356,4.5873808388.5734683306,6.8473935395,1.9086684558,10.1901420903,7.9274057627,19.1454526031,16.641867255,24.7615205103,6.1359981362,4.0539737274,13.3284302897,6.2146066437,20.6827009314,6.2131651497v26.9642320132l-.0000144874.0037956928Z"/>
</svg>