<?xml version="1.0" encoding="UTF-8"?>
<svg id="_レイヤー_1" data-name=" レイヤー 1" xmlns="http://www.w3.org/2000/svg" viewBox="0 0 200 200">
  <path d="M171.8846189059,63.6538458604c-1.7307692308-6.4615367009-6.8076852652-11.6538443932-13.2692307692-13.384613624-11.6538531964-3.1153854957-58.6153881366-3.1153854957-58.6153881366-3.1153854957,0,0-46.9615393419,0-58.6153837351,3.1153854957-6.4615367009,1.7307692308-11.5384615385,6.8076940683-13.2692307692,13.384613624-3.1153854957,11.769227248-3.1153854957,36.3461538462-3.1153854957,36.3461538462,0,0,0,24.5769265982,3.1153854957,36.3461538462,1.7307692308,6.4615455041,6.8076940683,11.6538531964,13.2692307692,13.3846224271,11.6538487948,3.1153810941,58.6153837351,3.1153810941,58.6153837351,3.1153810941,0,0,46.9615349403,0,58.6153881366-3.1153810941,6.4615455041-1.7307692308,11.5384615385-6.8076852652,13.2692307692-13.3846224271,3.1153810941-11.769227248,3.1153810941-36.3461538462,3.1153810941-36.3461538462,0,0,0-24.5769265982-3.1153810941-36.3461538462ZM84.6538426326,122.2692339971v-44.5384597778l39.2307692308,22.2692254873-39.2307692308,22.2692342905Z"/>
</svg>